<svg width="30" height="30" viewBox="0 0 30 30" fill="none" xmlns="http://www.w3.org/2000/svg">
<path d="M16.8381 14.6317C17.5287 14.6317 18.0885 14.0753 18.0885 13.389C18.0885 12.7026 17.5287 12.1462 16.8381 12.1462C16.1473 12.1462 15.5874 12.7026 15.5874 13.389C15.5874 14.0753 16.1473 14.6317 16.8381 14.6317Z" fill="white"/>
<path d="M23.6836 14.5379C24.3225 14.5379 24.8405 14.0231 24.8405 13.3882C24.8405 12.7533 24.3225 12.2385 23.6836 12.2385C23.0446 12.2385 22.5266 12.7533 22.5266 13.3882C22.5266 14.0231 23.0446 14.5379 23.6836 14.5379Z" fill="white"/>
<path d="M24.7787 2.40002H5.21873C2.33623 2.40002 0 4.72329 0 7.58768V17.6557C0 20.5193 2.33623 22.8425 5.21873 22.8425H12.5727L14.9992 27.6L17.7485 22.8425H24.7796C27.662 22.8425 30 20.5193 30 17.6557V7.58768C29.9991 4.72329 27.6621 2.40002 24.7787 2.40002ZM6.47875 16.174C5.94623 16.174 5.44976 16.0281 5.02203 15.7763V16.1365H3.06545V8.24488H5.02203V10.8532C5.44976 10.6031 5.94623 10.4563 6.47875 10.4563C8.06945 10.4563 9.35697 11.7366 9.35697 13.3156C9.35612 14.8946 8.06859 16.174 6.47875 16.174ZM12.5779 10.913V16.174H10.6986V10.913C10.6986 9.77012 9.96938 9.77013 9.96938 9.77013V8.24488C11.6898 8.22013 12.2755 9.35359 12.4748 10.1508C12.571 10.5374 12.577 10.8455 12.577 10.9027L12.5779 10.913ZM16.8381 16.4088C15.1589 16.4088 13.7975 15.0568 13.7975 13.389C13.7975 11.7204 15.1589 10.3684 16.8381 10.3684C18.5155 10.3684 19.8769 11.7204 19.8769 13.389C19.8769 15.0568 18.5155 16.4088 16.8381 16.4088ZM23.3993 18.8916V17.369C23.3993 17.369 25.1034 17.5653 25.1034 16.6059V15.7976C24.6868 16.0409 24.2015 16.1826 23.6836 16.1826C22.1315 16.1826 20.8715 14.9313 20.8715 13.389C20.8715 11.845 22.1324 10.5938 23.6836 10.5938C24.2024 10.5938 24.6868 10.7363 25.1034 10.9795V10.7354H26.9217V16.6068C26.9217 16.6068 27.3185 18.8916 23.3993 18.8916Z" fill="white"/>
<path d="M6.2692 14.4772C6.91528 14.4772 7.43903 13.9567 7.43903 13.3147C7.43903 12.6727 6.91528 12.1522 6.2692 12.1522C5.62312 12.1522 5.09937 12.6727 5.09937 13.3147C5.09937 13.9567 5.62312 14.4772 6.2692 14.4772Z" fill="white"/>
</svg>
