<svg width="30" height="30" viewBox="0 0 30 30" fill="none" xmlns="http://www.w3.org/2000/svg">
<path d="M21.5097 0H8.49029C3.80923 0 0 3.85464 0 8.59539V21.4063C0 26.1454 3.80923 30 8.49029 30H21.5097C26.1916 30 30 26.1454 30 21.4063V8.59539C30 3.85464 26.1916 0 21.5097 0ZM27.2559 21.4063C27.2559 24.6126 24.6793 27.2228 21.5106 27.2228H8.49116C5.32413 27.2228 2.74579 24.6126 2.74579 21.4063V8.59539C2.74579 5.38742 5.32413 2.77803 8.49116 2.77803H21.5106C24.6793 2.77803 27.2559 5.38742 27.2559 8.59539V21.4063Z" fill="white"/>
<path d="M15.0003 7.12732C10.7103 7.12732 7.22302 10.6586 7.22302 15.0009C7.22302 19.3432 10.7103 22.8727 15.0003 22.8727C19.2886 22.8727 22.7759 19.3432 22.7759 15.0009C22.7759 10.6586 19.2886 7.12732 15.0003 7.12732ZM15.0003 20.0947C12.2243 20.0947 9.96797 17.8113 9.96797 15.0009C9.96797 12.1914 12.2243 9.90624 15.0003 9.90624C17.7746 9.90624 20.0318 12.1914 20.0318 15.0009C20.0318 17.8113 17.7746 20.0947 15.0003 20.0947Z" fill="white"/>
<path d="M23.0513 8.82701C24.0614 8.82701 24.8803 7.99797 24.8803 6.97529C24.8803 5.9526 24.0614 5.12354 23.0513 5.12354C22.0411 5.12354 21.2222 5.9526 21.2222 6.97529C21.2222 7.99797 22.0411 8.82701 23.0513 8.82701Z" fill="white"/>
</svg>
