<svg width="50" height="250" viewBox="0 0 50 250" fill="none" xmlns="http://www.w3.org/2000/svg">
<g clip-path="url(#clip0_3_126)">
<path d="M19.7462 37.4925C29.5472 37.4925 37.4925 29.5472 37.4925 19.7462C37.4925 9.94526 29.5472 2 19.7462 2C9.94526 2 2 9.94526 2 19.7462C2 29.5472 9.94526 37.4925 19.7462 37.4925Z" stroke="#FCBB01" stroke-width="4" stroke-linecap="round" stroke-linejoin="round"/>
<path d="M47.6332 47.6332L32.4221 32.4221" stroke="#FCBB01" stroke-width="4" stroke-linecap="round" stroke-linejoin="round"/>
<path d="M2 94.5847L5.29317 85.4355C2.44697 81.5371 1.41735 76.9206 2.39573 72.4443C3.37412 67.968 6.29394 63.9364 10.6123 61.0992C14.9307 58.262 20.3537 56.8123 25.8732 57.0195C31.3926 57.2268 36.6328 59.0769 40.6194 62.2259C44.6061 65.375 47.0679 69.6086 47.5472 74.1397C48.0265 78.6707 46.4906 83.1909 43.2251 86.8598C39.9596 90.5286 35.1867 93.0964 29.7938 94.0858C24.401 95.0752 18.7551 94.4188 13.9061 92.2387L2 94.5847" stroke="#FCBB01" stroke-width="4" stroke-linecap="round" stroke-linejoin="round"/>
<path d="M24.7988 75.8171V75.8408" stroke="#FCBB01" stroke-width="4" stroke-linecap="round" stroke-linejoin="round"/>
<path d="M14.666 75.8171V75.8408" stroke="#FCBB01" stroke-width="4" stroke-linecap="round" stroke-linejoin="round"/>
<path d="M34.9316 75.8171V75.8408" stroke="#FCBB01" stroke-width="4" stroke-linecap="round" stroke-linejoin="round"/>
<path d="M32 111L32 114" stroke="#FCBB01" stroke-width="4" stroke-linecap="round" stroke-linejoin="round"/>
<path d="M32 124V129.07" stroke="#FCBB01" stroke-width="4" stroke-linecap="round" stroke-linejoin="round"/>
<path d="M32 139L32 142" stroke="#FCBB01" stroke-width="4" stroke-linecap="round" stroke-linejoin="round"/>
<mask id="path-10-inside-1_3_126" fill="white">
<path d="M7.07035 109H42.5628C43.9076 109 45.1972 109.534 46.1481 110.485C47.099 111.436 47.6332 112.726 47.6332 114.07V121.676C46.2884 121.676 44.9988 122.21 44.0479 123.161C43.097 124.112 42.5628 125.401 42.5628 126.746C42.5628 128.091 43.097 129.381 44.0479 130.332C44.9988 131.282 46.2884 131.817 47.6332 131.817V139.422C47.6332 140.767 47.099 142.057 46.1481 143.007C45.1972 143.958 43.9076 144.492 42.5628 144.492H7.07035C5.72561 144.492 4.43595 143.958 3.48507 143.007C2.5342 142.057 2 140.767 2 139.422V131.817C3.34474 131.817 4.63441 131.282 5.58528 130.332C6.53616 129.381 7.07035 128.091 7.07035 126.746C7.07035 125.401 6.53616 124.112 5.58528 123.161C4.63441 122.21 3.34474 121.676 2 121.676V114.07C2 112.726 2.5342 111.436 3.48507 110.485C4.43595 109.534 5.72561 109 7.07035 109Z"/>
</mask>
<path d="M7.07035 105C4.86121 105 3.07035 106.791 3.07035 109C3.07035 111.209 4.86121 113 7.07035 113V105ZM42.5628 109V105V109ZM47.6332 121.676V125.676C49.8423 125.676 51.6332 123.885 51.6332 121.676H47.6332ZM47.6332 131.817H51.6332C51.6332 129.607 49.8423 127.817 47.6332 127.817V131.817ZM2 139.422H-2H2ZM2 131.817V127.817C-0.209139 127.817 -2 129.607 -2 131.817H2ZM7.07035 126.746H11.0704H7.07035ZM2 121.676H-2C-2 123.885 -0.209139 125.676 2 125.676L2 121.676ZM7.07035 113C9.27949 113 11.0704 111.209 11.0704 109C11.0704 106.791 9.27949 105 7.07035 105V113ZM7.07035 113H42.5628V105H7.07035V113ZM42.5628 113C42.8467 113 43.119 113.113 43.3197 113.313L48.9765 107.657C47.2755 105.956 44.9684 105 42.5628 105V113ZM43.3197 113.313C43.5204 113.514 43.6332 113.786 43.6332 114.07H51.6332C51.6332 111.665 50.6776 109.358 48.9765 107.657L43.3197 113.313ZM43.6332 114.07V121.676H51.6332V114.07H43.6332ZM47.6332 117.676C45.2276 117.676 42.9205 118.632 41.2195 120.333L46.8763 125.989C47.0771 125.789 47.3493 125.676 47.6332 125.676V117.676ZM41.2195 120.333C39.5185 122.034 38.5628 124.341 38.5628 126.746H46.5628C46.5628 126.462 46.6756 126.19 46.8763 125.989L41.2195 120.333ZM38.5628 126.746C38.5628 129.152 39.5185 131.459 41.2195 133.16L46.8763 127.503C46.6756 127.302 46.5628 127.03 46.5628 126.746H38.5628ZM41.2195 133.16C42.9205 134.861 45.2276 135.817 47.6332 135.817V127.817C47.3493 127.817 47.0771 127.704 46.8763 127.503L41.2195 133.16ZM43.6332 131.817V139.422H51.6332V131.817H43.6332ZM43.6332 139.422C43.6332 139.706 43.5204 139.978 43.3197 140.179L48.9765 145.836C50.6776 144.135 51.6332 141.828 51.6332 139.422H43.6332ZM43.3197 140.179C43.119 140.38 42.8467 140.492 42.5628 140.492V148.492C44.9684 148.492 47.2755 147.537 48.9765 145.836L43.3197 140.179ZM42.5628 140.492H7.07035V148.492H42.5628V140.492ZM7.07035 140.492C6.78648 140.492 6.51423 140.38 6.3135 140.179L0.656645 145.836C2.35766 147.537 4.66474 148.492 7.07035 148.492V140.492ZM6.3135 140.179C6.11277 139.978 6 139.706 6 139.422H-2C-2 141.828 -1.04438 144.135 0.656645 145.836L6.3135 140.179ZM6 139.422V131.817H-2V139.422H6ZM2 135.817C4.40561 135.817 6.71269 134.861 8.41371 133.16L2.75685 127.503C2.55612 127.704 2.28387 127.817 2 127.817V135.817ZM8.41371 133.16C10.1147 131.459 11.0704 129.152 11.0704 126.746H3.07035C3.07035 127.03 2.95759 127.302 2.75685 127.503L8.41371 133.16ZM11.0704 126.746C11.0704 124.341 10.1147 122.034 8.41371 120.333L2.75685 125.989C2.95759 126.19 3.07035 126.462 3.07035 126.746H11.0704ZM8.41371 120.333C6.71269 118.632 4.40561 117.676 2 117.676V125.676C2.28387 125.676 2.55612 125.789 2.75685 125.989L8.41371 120.333ZM6 121.676V114.07H-2V121.676H6ZM6 114.07C6 113.786 6.11277 113.514 6.3135 113.313L0.656645 107.657C-1.04438 109.358 -2 111.665 -2 114.07H6ZM6.3135 113.313C6.51423 113.113 6.78648 113 7.07035 113V105C4.66475 105 2.35767 105.956 0.656645 107.657L6.3135 113.313Z" fill="#FCBB01" mask="url(#path-10-inside-1_3_126)"/>
<path d="M25.0147 188.337L12.0353 195L14.5147 180.887L4 170.893L18.5103 168.84L25 156L31.4897 168.84L46 170.893L35.4853 180.887L37.9647 195L25.0147 188.337Z" stroke="#FCBB01" stroke-width="4" stroke-linecap="round" stroke-linejoin="round"/>
<path d="M24.8166 247.633C37.4179 247.633 47.6332 237.418 47.6332 224.817C47.6332 212.215 37.4179 202 24.8166 202C12.2153 202 2 212.215 2 224.817C2 237.418 12.2153 247.633 24.8166 247.633Z" stroke="#FCBB01" stroke-width="4" stroke-linecap="round" stroke-linejoin="round"/>
<path d="M24.8167 214.676V224.817" stroke="#FCBB01" stroke-width="4" stroke-linecap="round" stroke-linejoin="round"/>
<path d="M24.8167 234.958H24.8415" stroke="#FCBB01" stroke-width="4" stroke-linecap="round" stroke-linejoin="round"/>
</g>
<defs>
<clipPath id="clip0_3_126">
<rect width="50" height="250" fill="white"/>
</clipPath>
</defs>
</svg>
