<svg width="30" height="30" viewBox="0 0 30 30" fill="none" xmlns="http://www.w3.org/2000/svg">
<path d="M29.8029 9.15254C29.8029 6.63778 27.7692 4.59647 25.2629 4.59647C25.2629 4.59647 21.118 4.19995 15.1975 4.19995C9.27709 4.19995 4.73707 4.59647 4.73707 4.59647C2.23076 4.59647 0.197078 6.63778 0.197078 9.15254C0.197078 9.15254 0 11.7003 0 14.7599C0 17.8196 0.197078 20.2464 0.197078 20.2464C0.197078 22.7621 2.23076 24.8025 4.73707 24.8025C4.73707 24.8025 10.5471 25.2 14.9019 25.2C19.2549 25.2 25.2629 24.8025 25.2629 24.8025C27.7692 24.8025 29.8029 22.7621 29.8029 20.2464C29.8029 20.2464 30 17.8196 30 14.7599C30 11.7003 29.8029 9.15254 29.8029 9.15254ZM12.5325 19.2565V10.1434L20.0331 14.5997L12.5325 19.2565Z" fill="white"/>
</svg>
